# xmcd
#
# Track frame offsets: 
#        150
#        46475
#        64052
#        109065
#        139630
#        156507
#        168995
#        182147
#        196272
#        219242
#        239702
#        267061
#        275215
#        279353
#        286680
#        293100
#        297660
#        305285
#        307643
#
# Disc length: 4205 seconds
#
# Revision: 6
# Processed by: cddbd v1.5.2PL0 Copyright (c) Steve Scherf et al.
# Submitted via: ExactAudioCopy v0.99pb5
#
DISCID=24106b13
DTITLE=David Zinman, Rochester Philarmonic Orchestra - Gunther Herbig, 
DTITLE=Staatskapelle Berlin - Beethoven - Die Geschopfe des Prometheus
DTITLE=, Ballet Music Op.43
DYEAR=1991
DGENRE=Ballet
TTITLE0=Die Geschopfe des Prometheus - 01. Ouverture
TTITLE1=Die Geschopfe des Prometheus - 02. Adagio-allegro con brio-all
TTITLE1=egro vivace
TTITLE2=Die Geschopfe des Prometheus - 03. Maestoso andante-adagio-and
TTITLE2=ante quasi allegretto
TTITLE3=Die Geschopfe des Prometheus - 04. Allegro con brio-presto
TTITLE4=Die Geschopfe des Prometheus - 05. Adagio-adagio-allegro molto
TTITLE5=Die Geschopfe des Prometheus - 06. Pastorale-allegro
TTITLE6=Die Geschopfe des Prometheus - 07. Maestoso-allegro  (Solo di 
TTITLE6=Gioia)
TTITLE7=Die Geschopfe des Prometheus - 08. Allegro
TTITLE8=Die Geschopfe des Prometheus - 09. Andante-adagio-allegro-alle
TTITLE8=gretto  (Solo della Cassentini)
TTITLE9=Die Geschopfe des Prometheus - 10. Andantino-adagio-allegro  (
TTITLE9=Solo di Vigano)
TTITLE10=Die Geschopfe des Prometheus - 11. Finale - allegretto-allegro
TTITLE10=molto presto
TTITLE11=Ballet des Chevaliers, WoO 1 - 01. Marsch
TTITLE12=Ballet des Chevaliers, WoO 1 - 02. Deutscher Gesang, allegro 
TTITLE12=moderato
TTITLE13=Ballet des Chevaliers, WoO 1 - 03. Jagdlied, allegretto
TTITLE14=Ballet des Chevaliers, WoO 1 - 04. Romanze, andantino
TTITLE15=Ballet des Chevaliers, WoO 1 - 05. Kriegslied, allegro assai 
TTITLE15=con brio
TTITLE16=Ballet des Chevaliers, WoO 1 - 06. Trinklied, allegro con bri
TTITLE16=o
TTITLE17=Ballet des Chevaliers, WoO 1 - 07. Deutscher Tanz, walzer
TTITLE18=Ballet des Chevaliers, WoO 1 - 08. Coda, allegro vivace-andan
TTITLE18=tino-tempo I
EXTD=
EXTT0=
EXTT1=
EXTT2=
EXTT3=
EXTT4=
EXTT5=
EXTT6=
EXTT7=
EXTT8=
EXTT9=
EXTT10=
EXTT11=
EXTT12=
EXTT13=
EXTT14=
EXTT15=
EXTT16=
EXTT17=
EXTT18=
PLAYORDER=
